<svg xmlns="http://www.w3.org/2000/svg" width="13" height="13" viewBox="0 0 13 13">
    <!-- Dark theme variant: white outlines for unselected toolwindow tab -->
    <path d="M4.5 1.5 L4.5 4.5 L2 9.5 C1.5 10.5 2.2 11.5 3.5 11.5 L9.5 11.5 C10.8 11.5 11.5 10.5 11 9.5 L8.5 4.5 L8.5 1.5"
          fill="none" stroke="#FFFFFF" stroke-width="1.2" stroke-linecap="round" stroke-linejoin="round"/>
    <line x1="3.5" y1="1.5" x2="9.5" y2="1.5" stroke="#FFFFFF" stroke-width="1.2" stroke-linecap="round"/>
    <path d="M3 9 L10 9 L11 9.5 C11.5 10.5 10.8 11.5 9.5 11.5 L3.5 11.5 C2.2 11.5 1.5 10.5 2 9.5 Z"
          fill="#FFFFFF" opacity="0.15"/>
    <circle cx="5.5" cy="6.5" r="0.8" fill="#FFFFFF"/>
    <circle cx="7.5" cy="6.5" r="0.8" fill="#FFFFFF"/>
    <circle cx="6.5" cy="8.5" r="0.8" fill="#FFFFFF"/>
    <line x1="5.5" y1="6.5" x2="6.5" y2="8.5" stroke="#FFFFFF" stroke-width="0.6"/>
    <line x1="7.5" y1="6.5" x2="6.5" y2="8.5" stroke="#FFFFFF" stroke-width="0.6"/>
</svg>
